:FULLY-SPECIFIED
:FORCE-ALL-JOINTS-BE-3DOF
:DEGREES
1
root 6.24314 16.836 -28.1378 9.0217 -2.52979 -3.05774
lfemur -20.3712 2.30257 -19.9954
ltibia 35.927 0 0
lfoot -38.654 3.93715 0
ltoes 38.9541 0 0
rfemur -19.4747 0.22019 19.5256
rtibia 36.0342 0 0
rfoot -30.3779 -10.4967 0
rtoes 21.4483 0 0
lowerback -2.05144 3.66971 -5.03766
upperback -2.66728 5.00355 3.49279
thorax -2.36397 2.67023 6.42441
lowerneck -9.84699 -2.36864 1.94815
upperneck -1.37933 -3.32542 -1.65382
head 1.16433 -1.69823 -0.975663
lclavicle -1.65488e-14 -3.69739e-14 0
lhumerus -41.7253 -10.8128 99.8312
lradius 34.5094 0 0
lwrist 2.17521 0 0
lhand -10.5949 9.65639 0
lfingers 7.12502 0 0
lthumb 15.4107 39.062 0
rclavicle -1.65488e-14 -3.69739e-14 0
rhumerus -43.273 -4.86223 -84.2703
rradius 40.4763 0 0
rwrist 9.89469 0 0
rhand -23.7965 -22.476 0
rfingers 7.12502 0 0
rthumb 2.67393 -52.439 0
2
root 6.23524 16.84 -28.1301 9.0758 -2.61085 -3.00919
lfemur -20.3178 2.30589 -20.0266
ltibia 35.7954 0 0
lfoot -38.5836 4.01892 0
ltoes 38.8994 0 0
rfemur -19.3277 0.466551 19.4896
rtibia 35.7143 0 0
rfoot -30.3462 -10.7148 0
rtoes 21.5064 0 0
lowerback -2.25971 3.66706 -4.97168
upperback -2.63113 5.00465 3.40662
thorax -2.19556 2.66202 6.31356
lowerneck -9.85543 -2.35684 1.9824
upperneck -1.42229 -3.31479 -1.59558
head 1.15244 -1.69195 -0.962274
lclavicle -2.48016e-14 -3.49713e-14 0
lhumerus -41.7511 -10.8435 99.6942
lradius 34.5829 0 0
lwrist 2.2914 0 0
lhand -10.6632 8.88075 0
lfingers 7.12502 0 0
lthumb 15.3449 38.2913 0
rclavicle -2.48016e-14 -3.49713e-14 0
rhumerus -43.2028 -4.87791 -84.4222
rradius 40.4534 0 0
rwrist 9.93773 0 0
rhand -23.8455 -22.4177 0
rfingers 7.12502 0 0
rthumb 2.62657 -52.3813 0
3
root 6.22678 16.8443 -28.1219 9.13371 -2.69764 -2.95721
lfemur -20.2606 2.30944 -20.0599
ltibia 35.6544 0 0
lfoot -38.5083 4.10645 0
ltoes 38.8409 0 0
rfemur -19.1704 0.730303 19.4511
rtibia 35.3717 0 0
rfoot -30.3123 -10.9482 0
rtoes 21.5687 0 0
lowerback -2.48268 3.66423 -4.90104
upperback -2.59242 5.00582 3.31437
thorax -2.01526 2.65323 6.19488
lowerneck -9.86446 -2.34421 2.01907
upperneck -1.46828 -3.30342 -1.53323
head 1.13971 -1.68522 -0.947939
lclavicle -3.36369e-14 -3.28274e-14 0
lhumerus -41.7786 -10.8763 99.5475
lradius 34.6615 0 0
lwrist 2.41579 0 0
lhand -10.7364 8.05036 0
lfingers 7.12502 0 0
lthumb 15.2744 37.4663 0
rclavicle -3.36369e-14 -3.28274e-14 0
rhumerus -43.1276 -4.89469 -84.5847
rradius 40.4289 0 0
rwrist 9.9838 0 0
rhand -23.898 -22.3553 0
rfingers 7.12502 0 0
rthumb 2.57586 -52.3195 0
4
root 6.21804 16.8487 -28.1134 9.19353 -2.78729 -2.90352
lfemur -20.2015 2.31311 -20.0943
ltibia 35.5088 0 0
lfoot -38.4305 4.19688 0
ltoes 38.7804 0 0
rfemur -19.0078 1.00275 19.4112
rtibia 35.0179 0 0
rfoot -30.2772 -11.1894 0
rtoes 21.633 0 0
lowerback -2.713 3.6613 -4.82807
upperback -2.55244 5.00704 3.21907
thorax -1.82902 2.64414 6.07229
lowerneck -9.87379 -2.33115 2.05695
upperneck -1.5158 -3.29167 -1.46883
head 1.12656 -1.67827 -0.933132
lclavicle -4.27636e-14 -3.06128e-14 0
lhumerus -41.8071 -10.9102 99.3961
lradius 34.7428 0 0
lwrist 2.54428 0 0
lhand -10.8119 7.1926 0
lfingers 7.12502 0 0
lthumb 15.2016 36.614 0
rclavicle -4.27636e-14 -3.06128e-14 0
rhumerus -43.05 -4.91203 -84.7527
rradius 40.4036 0 0
rwrist 10.0314 0 0
rhand -23.9522 -22.2908 0
rfingers 7.12502 0 0
rthumb 2.52348 -52.2556 0
5
root 6.2093 16.8532 -28.105 9.25336 -2.87693 -2.84983
lfemur -20.1424 2.31677 -20.1288
ltibia 35.3633 0 0
lfoot -38.3527 4.2873 0
ltoes 38.7199 0 0
rfemur -18.8453 1.2752 19.3714
rtibia 34.6641 0 0
rfoot -30.2421 -11.4306 0
rtoes 21.6973 0 0
lowerback -2.94332 3.65837 -4.75509
upperback -2.51246 5.00826 3.12377
thorax -1.64278 2.63506 5.9497
lowerneck -9.88313 -2.3181 2.09483
upperneck -1.56331 -3.27992 -1.40442
head 1.11341 -1.67132 -0.918325
lclavicle -5.18902e-14 -2.83982e-14 0
lhumerus -41.8356 -10.9442 99.2446
lradius 34.824 0 0
lwrist 2.67277 0 0
lhand -10.8875 6.33484 0
lfingers 7.12502 0 0
lthumb 15.1288 35.7618 0
rclavicle -5.18902e-14 -2.83982e-14 0
rhumerus -42.9723 -4.92937 -84.9206
rradius 40.3783 0 0
rwrist 10.079 0 0
rhand -24.0065 -22.2264 0
rfingers 7.12502 0 0
rthumb 2.4711 -52.1917 0
6
root 6.20084 16.8575 -28.0968 9.31127 -2.96372 -2.79785
lfemur -20.0852 2.32032 -20.1621
ltibia 35.2223 0 0
lfoot -38.2774 4.37483 0
ltoes 38.6614 0 0
rfemur -18.688 1.53895 19.3329
rtibia 34.3215 0 0
rfoot -30.2082 -11.664 0
rtoes 21.7596 0 0
lowerback -3.16629 3.65554 -4.68445
upperback -2.47375 5.00943 3.03152
thorax -1.46248 2.62627 5.83102
lowerneck -9.89216 -2.30547 2.1315
upperneck -1.6093 -3.26855 -1.34207
head 1.10068 -1.66459 -0.90399
lclavicle -6.07255e-14 -2.62543e-14 0
lhumerus -41.8631 -10.977 99.0979
lradius 34.9026 0 0
lwrist 2.79716 0 0
lhand -10.9607 5.50445 0
lfingers 7.12502 0 0
lthumb 15.0583 34.9368 0
rclavicle -6.07255e-14 -2.62543e-14 0
rhumerus -42.8971 -4.94615 -85.0831
rradius 40.3538 0 0
rwrist 10.1251 0 0
rhand -24.059 -22.164 0
rfingers 7.12502 0 0
rthumb 2.42039 -52.1299 0
7
root 6.19294 16.8615 -28.0891 9.36537 -3.04478 -2.7493
lfemur -20.0318 2.32364 -20.1933
ltibia 35.0907 0 0
lfoot -38.207 4.4566 0
ltoes 38.6067 0 0
rfemur -18.541 1.78531 19.2969
rtibia 34.0016 0 0
rfoot -30.1765 -11.8821 0
rtoes 21.8177 0 0
lowerback -3.37456 3.65289 -4.61847
upperback -2.4376 5.01053 2.94535
thorax -1.29407 2.61806 5.72017
lowerneck -9.9006 -2.29367 2.16575
upperneck -1.65226 -3.25792 -1.28383
head 1.08879 -1.65831 -0.890601
lclavicle -6.89783e-14 -2.42517e-14 0
lhumerus -41.8889 -11.0077 98.9609
lradius 34.9761 0 0
lwrist 2.91335 0 0
lhand -11.029 4.72881 0
lfingers 7.12502 0 0
lthumb 14.9925 34.1661 0
rclavicle -6.89783e-14 -2.42517e-14 0
rhumerus -42.8269 -4.96183 -85.235
rradius 40.3309 0 0
rwrist 10.1681 0 0
rhand -24.108 -22.1057 0
rfingers 7.12502 0 0
rthumb 2.37303 -52.0722 0
8
root 6.18431 16.8638 -28.087 9.3884 -2.9888 -2.74969
lfemur -20.0269 2.28797 -20.1517
ltibia 35.0335 0 0
lfoot -38.1269 4.45704 0
ltoes 38.5619 0 0
rfemur -18.4111 2.05208 19.3286
rtibia 33.7696 0 0
rfoot -30.081 -12.2067 0
rtoes 21.5935 0 0
lowerback -3.46673 3.60775 -4.48061
upperback -2.4109 4.9483 2.88194
thorax -1.18953 2.58049 5.58402
lowerneck -9.89771 -2.27404 2.18279
upperneck -1.70717 -3.23442 -1.2366
head 1.07146 -1.64596 -0.87697
lclavicle -6.57358e-14 -2.3313e-14 0
lhumerus -41.8973 -11.0902 98.8786
lradius 35.056 0 0
lwrist 2.99107 0 0
lhand -11.0793 4.53739 0
lfingers 7.12502 0 0
lthumb 14.944 33.9783 0
rclavicle -6.57358e-14 -2.3313e-14 0
rhumerus -42.7029 -4.97726 -85.3643
rradius 40.2858 0 0
rwrist 10.1964 0 0
rhand -24.2903 -21.9465 0
rfingers 7.12502 0 0
rthumb 2.19694 -51.9145 0
9
root 6.17508 16.8664 -28.0847 9.41305 -2.92887 -2.7501
lfemur -20.0216 2.24979 -20.1072
ltibia 34.9722 0 0
lfoot -38.0412 4.4575 0
ltoes 38.5139 0 0
rfemur -18.272 2.33768 19.3626
rtibia 33.5212 0 0
rfoot -29.9787 -12.5542 0
rtoes 21.3535 0 0
lowerback -3.5654 3.55942 -4.33301
upperback -2.38232 4.88168 2.81404
thorax -1.07761 2.54026 5.43827
lowerneck -9.89463 -2.25303 2.20102
upperneck -1.76596 -3.20926 -1.18603
head 1.0529 -1.63273 -0.862377
lclavicle -6.22645e-14 -2.2308e-14 0
lhumerus -41.9064 -11.1785 98.7904
lradius 35.1416 0 0
lwrist 3.07427 0 0
lhand -11.1332 4.33245 0
lfingers 7.12502 0 0
lthumb 14.8921 33.7771 0
rclavicle -6.22645e-14 -2.2308e-14 0
rhumerus -42.5702 -4.99379 -85.5027
rradius 40.2375 0 0
rwrist 10.2266 0 0
rhand -24.4855 -21.7761 0
rfingers 7.12502 0 0
rthumb 2.00842 -51.7458 0
10
root 6.16554 16.869 -28.0824 9.43852 -2.86696 -2.75053
lfemur -20.0162 2.21035 -20.0612
ltibia 34.9089 0 0
lfoot -37.9526 4.45798 0
ltoes 38.4643 0 0
rfemur -18.1284 2.6327 19.3977
rtibia 33.2646 0 0
rfoot -29.873 -12.9132 0
rtoes 21.1057 0 0
lowerback -3.66732 3.5095 -4.18056
upperback -2.3528 4.81286 2.74391
thorax -0.962 2.49872 5.2877
lowerneck -9.89144 -2.23133 2.21987
upperneck -1.82668 -3.18327 -1.1338
head 1.03373 -1.61907 -0.847304
lclavicle -5.86788e-14 -2.12699e-14 0
lhumerus -41.9157 -11.2697 98.6994
lradius 35.23 0 0
lwrist 3.16021 0 0
lhand -11.1888 4.12076 0
lfingers 7.12502 0 0
lthumb 14.8385 33.5694 0
rclavicle -5.86788e-14 -2.12699e-14 0
rhumerus -42.4331 -5.01086 -85.6456
rradius 40.1877 0 0
rwrist 10.2579 0 0
rhand -24.6872 -21.6001 0
rfingers 7.12502 0 0
rthumb 1.81369 -51.5714 0
11
root 6.15599 16.8715 -28.08 9.46399 -2.80505 -2.75096
lfemur -20.0108 2.17091 -20.0151
ltibia 34.8457 0 0
lfoot -37.864 4.45847 0
ltoes 38.4147 0 0
rfemur -17.9847 2.92771 19.4327
rtibia 33.008 0 0
rfoot -29.7673 -13.2722 0
rtoes 20.8578 0 0
lowerback -3.76924 3.45959 -4.0281
upperback -2.32328 4.74405 2.67379
thorax -0.84639 2.45717 5.13714
lowerneck -9.88824 -2.20963 2.23871
upperneck -1.8874 -3.15728 -1.08156
head 1.01456 -1.60541 -0.83223
lclavicle -5.5093e-14 -2.02319e-14 0
lhumerus -41.925 -11.3609 98.6084
lradius 35.3185 0 0
lwrist 3.24615 0 0
lhand -11.2445 3.90907 0
lfingers 7.12502 0 0
lthumb 14.785 33.3617 0
rclavicle -5.5093e-14 -2.02319e-14 0
rhumerus -42.2961 -5.02792 -85.7886
rradius 40.1378 0 0
rwrist 10.2892 0 0
rhand -24.8888 -21.4241 0
rfingers 7.12502 0 0
rthumb 1.61896 -51.397 0
12
root 6.14676 16.8741 -28.0777 9.48864 -2.74512 -2.75137
lfemur -20.0055 2.13273 -19.9706
ltibia 34.7844 0 0
lfoot -37.7783 4.45893 0
ltoes 38.3667 0 0
rfemur -17.8456 3.21331 19.4667
rtibia 32.7596 0 0
rfoot -29.665 -13.6197 0
rtoes 20.6178 0 0
lowerback -3.86791 3.41126 -3.8805
upperback -2.2947 4.67743 2.60589
thorax -0.734471 2.41694 4.99139
lowerneck -9.88516 -2.18862 2.25694
upperneck -1.94619 -3.13212 -1.03099
head 0.996004 -1.59218 -0.817637
lclavicle -5.16217e-14 -1.92269e-14 0
lhumerus -41.9341 -11.4492 98.5202
lradius 35.4041 0 0
lwrist 3.32935 0 0
lhand -11.2984 3.70413 0
lfingers 7.12502 0 0
lthumb 14.7331 33.1606 0
rclavicle -5.16217e-14 -1.92269e-14 0
rhumerus -42.1634 -5.04445 -85.927
rradius 40.0895 0 0
rwrist 10.3194 0 0
rhand -25.084 -21.2537 0
rfingers 7.12502 0 0
rthumb 1.43044 -51.2283 0
